<svg xmlns="http://www.w3.org/2000/svg" version="1.1" baseProfile="full" width="900" height="500" style="position: absolute; left: 0px; top: 0px;"><path d="M 90.5 440 L 90.5 60" fill="none" stroke="#333" stroke-width="1" paint-order="fill" stroke-opacity="1" stroke-dasharray="" stroke-linecap="round" stroke-linejoin="miter" stroke-miterlimit="10" clip-path="none"></path><path d="M 90 440.5 L 810 440.5" fill="none" stroke="#333" stroke-width="1" paint-order="fill" stroke-opacity="1" stroke-dasharray="" stroke-linecap="round" stroke-linejoin="miter" stroke-miterlimit="10" clip-path="none"></path><path d="M 90 440.5 L 85 440.5" fill="none" stroke="#333" stroke-width="1" paint-order="fill" stroke-opacity="1" stroke-dasharray="" stroke-linecap="butt" stroke-linejoin="miter" stroke-miterlimit="10" clip-path="none"></path><path d="M 90 385.5 L 85 385.5" fill="none" stroke="#333" stroke-width="1" paint-order="fill" stroke-opacity="1" stroke-dasharray="" stroke-linecap="butt" stroke-linejoin="miter" stroke-miterlimit="10" clip-path="none"></path><path d="M 90 331.5 L 85 331.5" fill="none" stroke="#333" stroke-width="1" paint-order="fill" stroke-opacity="1" stroke-dasharray="" stroke-linecap="butt" stroke-linejoin="miter" stroke-miterlimit="10" clip-path="none"></path><path d="M 90 277.5 L 85 277.5" fill="none" stroke="#333" stroke-width="1" paint-order="fill" stroke-opacity="1" stroke-dasharray="" stroke-linecap="butt" stroke-linejoin="miter" stroke-miterlimit="10" clip-path="none"></path><path d="M 90 223.5 L 85 223.5" fill="none" stroke="#333" stroke-width="1" paint-order="fill" stroke-opacity="1" stroke-dasharray="" stroke-linecap="butt" stroke-linejoin="miter" stroke-miterlimit="10" clip-path="none"></path><path d="M 90 168.5 L 85 168.5" fill="none" stroke="#333" stroke-width="1" paint-order="fill" stroke-opacity="1" stroke-dasharray="" stroke-linecap="butt" stroke-linejoin="miter" stroke-miterlimit="10" clip-path="none"></path><path d="M 90 114.5 L 85 114.5" fill="none" stroke="#333" stroke-width="1" paint-order="fill" stroke-opacity="1" stroke-dasharray="" stroke-linecap="butt" stroke-linejoin="miter" stroke-miterlimit="10" clip-path="none"></path><path d="M 90 60.5 L 85 60.5" fill="none" stroke="#333" stroke-width="1" paint-order="fill" stroke-opacity="1" stroke-dasharray="" stroke-linecap="butt" stroke-linejoin="miter" stroke-miterlimit="10" clip-path="none"></path><path d="M 90.5 440 L 90.5 445" fill="none" stroke="#333" stroke-width="1" paint-order="fill" stroke-opacity="1" stroke-dasharray="" stroke-linecap="butt" stroke-linejoin="miter" stroke-miterlimit="10" clip-path="none"></path><path d="M 234.5 440 L 234.5 445" fill="none" stroke="#333" stroke-width="1" paint-order="fill" stroke-opacity="1" stroke-dasharray="" stroke-linecap="butt" stroke-linejoin="miter" stroke-miterlimit="10" clip-path="none"></path><path d="M 378.5 440 L 378.5 445" fill="none" stroke="#333" stroke-width="1" paint-order="fill" stroke-opacity="1" stroke-dasharray="" stroke-linecap="butt" stroke-linejoin="miter" stroke-miterlimit="10" clip-path="none"></path><path d="M 522.5 440 L 522.5 445" fill="none" stroke="#333" stroke-width="1" paint-order="fill" stroke-opacity="1" stroke-dasharray="" stroke-linecap="butt" stroke-linejoin="miter" stroke-miterlimit="10" clip-path="none"></path><path d="M 666.5 440 L 666.5 445" fill="none" stroke="#333" stroke-width="1" paint-order="fill" stroke-opacity="1" stroke-dasharray="" stroke-linecap="butt" stroke-linejoin="miter" stroke-miterlimit="10" clip-path="none"></path><path d="M 810.5 440 L 810.5 445" fill="none" stroke="#333" stroke-width="1" paint-order="fill" stroke-opacity="1" stroke-dasharray="" stroke-linecap="butt" stroke-linejoin="miter" stroke-miterlimit="10" clip-path="none"></path><text dominant-baseline="middle" alignment-baseline="middle" x="0" y="0" fill="#333" fill-opacity="1" stroke="none" transform="matrix(1,2.4492937051703357e-16,-2.4492937051703357e-16,1,82,412.8571472167969)" clip-path="none" style="font-style: normal; font-variant: normal; font-weight: normal; font-size: 12px; line-height: normal; font-family: 'Microsoft YaHei';"><tspan dominant-baseline="middle" alignment-baseline="middle" text-anchor="end" x="0" y="0">衬衫</tspan></text><text dominant-baseline="middle" alignment-baseline="middle" x="0" y="0" fill="#333" fill-opacity="1" stroke="none" transform="matrix(1,2.4492937051703357e-16,-2.4492937051703357e-16,1,82,358.5714111328125)" clip-path="none" style="font-style: normal; font-variant: normal; font-weight: normal; font-size: 12px; line-height: normal; font-family: 'Microsoft YaHei';"><tspan dominant-baseline="middle" alignment-baseline="middle" text-anchor="end" x="0" y="0">毛衣</tspan></text><text dominant-baseline="middle" alignment-baseline="middle" x="0" y="0" fill="#333" fill-opacity="1" stroke="none" transform="matrix(1,2.4492937051703357e-16,-2.4492937051703357e-16,1,82,304.28570556640625)" clip-path="none" style="font-style: normal; font-variant: normal; font-weight: normal; font-size: 12px; line-height: normal; font-family: 'Microsoft YaHei';"><tspan dominant-baseline="middle" alignment-baseline="middle" text-anchor="end" x="0" y="0">领带</tspan></text><text dominant-baseline="middle" alignment-baseline="middle" x="0" y="0" fill="#333" fill-opacity="1" stroke="none" transform="matrix(1,2.4492937051703357e-16,-2.4492937051703357e-16,1,82,250)" clip-path="none" style="font-style: normal; font-variant: normal; font-weight: normal; font-size: 12px; line-height: normal; font-family: 'Microsoft YaHei';"><tspan dominant-baseline="middle" alignment-baseline="middle" text-anchor="end" x="0" y="0">裤子</tspan></text><text dominant-baseline="middle" alignment-baseline="middle" x="0" y="0" fill="#333" fill-opacity="1" stroke="none" transform="matrix(1,2.4492937051703357e-16,-2.4492937051703357e-16,1,82,195.7142791748047)" clip-path="none" style="font-style: normal; font-variant: normal; font-weight: normal; font-size: 12px; line-height: normal; font-family: 'Microsoft YaHei';"><tspan dominant-baseline="middle" alignment-baseline="middle" text-anchor="end" x="0" y="0">风衣</tspan></text><text dominant-baseline="middle" alignment-baseline="middle" x="0" y="0" fill="#333" fill-opacity="1" stroke="none" transform="matrix(1,2.4492937051703357e-16,-2.4492937051703357e-16,1,82,141.42855834960938)" clip-path="none" style="font-style: normal; font-variant: normal; font-weight: normal; font-size: 12px; line-height: normal; font-family: 'Microsoft YaHei';"><tspan dominant-baseline="middle" alignment-baseline="middle" text-anchor="end" x="0" y="0">高跟鞋</tspan></text><text dominant-baseline="middle" alignment-baseline="middle" x="0" y="0" fill="#333" fill-opacity="1" stroke="none" transform="matrix(1,2.4492937051703357e-16,-2.4492937051703357e-16,1,82,87.14285278320312)" clip-path="none" style="font-style: normal; font-variant: normal; font-weight: normal; font-size: 12px; line-height: normal; font-family: 'Microsoft YaHei';"><tspan dominant-baseline="middle" alignment-baseline="middle" text-anchor="end" x="0" y="0">袜子</tspan></text><text dominant-baseline="hanging" alignment-baseline="hanging" x="0" y="0" fill="#333" fill-opacity="1" stroke="none" transform="matrix(1,0,0,1,90,448)" clip-path="none" style="font-style: normal; font-variant: normal; font-weight: normal; font-size: 12px; line-height: normal; font-family: 'Microsoft YaHei';"><tspan dominant-baseline="hanging" alignment-baseline="hanging" text-anchor="middle" x="0" y="0">0</tspan></text><text dominant-baseline="hanging" alignment-baseline="hanging" x="0" y="0" fill="#333" fill-opacity="1" stroke="none" transform="matrix(1,0,0,1,234,448)" clip-path="none" style="font-style: normal; font-variant: normal; font-weight: normal; font-size: 12px; line-height: normal; font-family: 'Microsoft YaHei';"><tspan dominant-baseline="hanging" alignment-baseline="hanging" text-anchor="middle" x="0" y="0">30</tspan></text><text dominant-baseline="hanging" alignment-baseline="hanging" x="0" y="0" fill="#333" fill-opacity="1" stroke="none" transform="matrix(1,0,0,1,378,448)" clip-path="none" style="font-style: normal; font-variant: normal; font-weight: normal; font-size: 12px; line-height: normal; font-family: 'Microsoft YaHei';"><tspan dominant-baseline="hanging" alignment-baseline="hanging" text-anchor="middle" x="0" y="0">60</tspan></text><text dominant-baseline="hanging" alignment-baseline="hanging" x="0" y="0" fill="#333" fill-opacity="1" stroke="none" transform="matrix(1,0,0,1,522,448)" clip-path="none" style="font-style: normal; font-variant: normal; font-weight: normal; font-size: 12px; line-height: normal; font-family: 'Microsoft YaHei';"><tspan dominant-baseline="hanging" alignment-baseline="hanging" text-anchor="middle" x="0" y="0">90</tspan></text><text dominant-baseline="hanging" alignment-baseline="hanging" x="0" y="0" fill="#333" fill-opacity="1" stroke="none" transform="matrix(1,0,0,1,666,448)" clip-path="none" style="font-style: normal; font-variant: normal; font-weight: normal; font-size: 12px; line-height: normal; font-family: 'Microsoft YaHei';"><tspan dominant-baseline="hanging" alignment-baseline="hanging" text-anchor="middle" x="0" y="0">120</tspan></text><text dominant-baseline="hanging" alignment-baseline="hanging" x="0" y="0" fill="#333" fill-opacity="1" stroke="none" transform="matrix(1,0,0,1,810,448)" clip-path="none" style="font-style: normal; font-variant: normal; font-weight: normal; font-size: 12px; line-height: normal; font-family: 'Microsoft YaHei';"><tspan dominant-baseline="hanging" alignment-baseline="hanging" text-anchor="middle" x="0" y="0">150</tspan></text><path d="M 90 391.1429 L 637.2 391.1429 L 637.2 410.0249 L 90 410.0249 L 90 391.1429 Z" fill="#c23531" fill-opacity="undefined" stroke="none" clip-path="none" transform="matrix(1,0,0,1,0,0)"></path><text dominant-baseline="middle" alignment-baseline="middle" x="642.2" y="400.583850931677" fill="#c23531" fill-opacity="undefined" stroke="none" transform="matrix(1,0,0,1,0,0)" clip-path="none" style="font-style: normal; font-variant: normal; font-weight: normal; font-size: 12px; line-height: normal; font-family: 'Microsoft YaHei';"><tspan dominant-baseline="middle" alignment-baseline="middle" text-anchor="start" x="642.2" y="400.583850931677">114114</tspan></text><path d="M 90 336.8571 L 354 336.8571 L 354 355.7391 L 90 355.7391 L 90 336.8571 Z" fill="#c23531" fill-opacity="undefined" stroke="none" clip-path="none" transform="matrix(1,0,0,1,0,0)"></path><text dominant-baseline="middle" alignment-baseline="middle" x="359" y="346.2981366459627" fill="#c23531" fill-opacity="undefined" stroke="none" transform="matrix(1,0,0,1,0,0)" clip-path="none" style="font-style: normal; font-variant: normal; font-weight: normal; font-size: 12px; line-height: normal; font-family: 'Microsoft YaHei';"><tspan dominant-baseline="middle" alignment-baseline="middle" text-anchor="start" x="359" y="346.2981366459627">5555</tspan></text><path d="M 90 282.5714 L 219.6 282.5714 L 219.6 301.4534 L 90 301.4534 L 90 282.5714 Z" fill="#c23531" fill-opacity="undefined" stroke="none" clip-path="none" transform="matrix(1,0,0,1,0,0)"></path><text dominant-baseline="middle" alignment-baseline="middle" x="224.6" y="292.0124223602485" fill="#c23531" fill-opacity="undefined" stroke="none" transform="matrix(1,0,0,1,0,0)" clip-path="none" style="font-style: normal; font-variant: normal; font-weight: normal; font-size: 12px; line-height: normal; font-family: 'Microsoft YaHei';"><tspan dominant-baseline="middle" alignment-baseline="middle" text-anchor="start" x="224.6" y="292.0124223602485">2727</tspan></text><path d="M 90 228.2857 L 574.8 228.2857 L 574.8 247.1677 L 90 247.1677 L 90 228.2857 Z" fill="#c23531" fill-opacity="undefined" stroke="none" clip-path="none" transform="matrix(1,0,0,1,0,0)"></path><text dominant-baseline="middle" alignment-baseline="middle" x="579.8" y="237.7267080745342" fill="#c23531" fill-opacity="undefined" stroke="none" transform="matrix(1,0,0,1,0,0)" clip-path="none" style="font-style: normal; font-variant: normal; font-weight: normal; font-size: 12px; line-height: normal; font-family: 'Microsoft YaHei';"><tspan dominant-baseline="middle" alignment-baseline="middle" text-anchor="start" x="579.8" y="237.7267080745342">101101</tspan></text><path d="M 90 174 L 690 174 L 690 192.882 L 90 192.882 L 90 174 Z" fill="#c23531" fill-opacity="undefined" stroke="none" clip-path="none" transform="matrix(1,0,0,1,0,0)"></path><text dominant-baseline="middle" alignment-baseline="middle" x="695" y="183.44099378881992" fill="#c23531" fill-opacity="undefined" stroke="none" transform="matrix(1,0,0,1,0,0)" clip-path="none" style="font-style: normal; font-variant: normal; font-weight: normal; font-size: 12px; line-height: normal; font-family: 'Microsoft YaHei';"><tspan dominant-baseline="middle" alignment-baseline="middle" text-anchor="start" x="695" y="183.44099378881992">125125</tspan></text><path d="M 90 119.7143 L 219.6 119.7143 L 219.6 138.59629999999999 L 90 138.59629999999999 L 90 119.7143 Z" fill="#c23531" fill-opacity="undefined" stroke="none" clip-path="none" transform="matrix(1,0,0,1,0,0)"></path><text dominant-baseline="middle" alignment-baseline="middle" x="224.6" y="129.1552795031056" fill="#c23531" fill-opacity="undefined" stroke="none" transform="matrix(1,0,0,1,0,0)" clip-path="none" style="font-style: normal; font-variant: normal; font-weight: normal; font-size: 12px; line-height: normal; font-family: 'Microsoft YaHei';"><tspan dominant-baseline="middle" alignment-baseline="middle" text-anchor="start" x="224.6" y="129.1552795031056">2727</tspan></text><path d="M 90 65.4286 L 594 65.4286 L 594 84.31060000000001 L 90 84.31060000000001 L 90 65.4286 Z" fill="#c23531" fill-opacity="undefined" stroke="none" clip-path="none" transform="matrix(1,0,0,1,0,0)"></path><text dominant-baseline="middle" alignment-baseline="middle" x="599" y="74.86956521739133" fill="#c23531" fill-opacity="undefined" stroke="none" transform="matrix(1,0,0,1,0,0)" clip-path="none" style="font-style: normal; font-variant: normal; font-weight: normal; font-size: 12px; line-height: normal; font-family: 'Microsoft YaHei';"><tspan dominant-baseline="middle" alignment-baseline="middle" text-anchor="start" x="599" y="74.86956521739133">105105</tspan></text><path d="M 90 415.6894 L 363.6 415.6894 L 363.6 434.5714 L 90 434.5714 L 90 415.6894 Z" fill="#2f4554" fill-opacity="undefined" stroke="none" clip-path="none" transform="matrix(1,0,0,1,0,0)"></path><text dominant-baseline="middle" alignment-baseline="middle" x="368.6" y="425.1304347826087" fill="#2f4554" fill-opacity="undefined" stroke="none" transform="matrix(1,0,0,1,0,0)" clip-path="none" style="font-style: normal; font-variant: normal; font-weight: normal; font-size: 12px; line-height: normal; font-family: 'Microsoft YaHei';"><tspan dominant-baseline="middle" alignment-baseline="middle" text-anchor="start" x="368.6" y="425.1304347826087">5757</tspan></text><path d="M 90 361.4037 L 733.2 361.4037 L 733.2 380.2857 L 90 380.2857 L 90 361.4037 Z" fill="#2f4554" fill-opacity="undefined" stroke="none" clip-path="none" transform="matrix(1,0,0,1,0,0)"></path><text dominant-baseline="middle" alignment-baseline="middle" x="738.1999999999999" y="370.8447204968944" fill="#2f4554" fill-opacity="undefined" stroke="none" transform="matrix(1,0,0,1,0,0)" clip-path="none" style="font-style: normal; font-variant: normal; font-weight: normal; font-size: 12px; line-height: normal; font-family: 'Microsoft YaHei';"><tspan dominant-baseline="middle" alignment-baseline="middle" text-anchor="start" x="738.1999999999999" y="370.8447204968944">134134</tspan></text><path d="M 90 307.118 L 747.6 307.118 L 747.6 326 L 90 326 L 90 307.118 Z" fill="#2f4554" fill-opacity="undefined" stroke="none" clip-path="none" transform="matrix(1,0,0,1,0,0)"></path><text dominant-baseline="middle" alignment-baseline="middle" x="752.6" y="316.5590062111802" fill="#2f4554" fill-opacity="undefined" stroke="none" transform="matrix(1,0,0,1,0,0)" clip-path="none" style="font-style: normal; font-variant: normal; font-weight: normal; font-size: 12px; line-height: normal; font-family: 'Microsoft YaHei';"><tspan dominant-baseline="middle" alignment-baseline="middle" text-anchor="start" x="752.6" y="316.5590062111802">137137</tspan></text><path d="M 90 252.8323 L 709.2 252.8323 L 709.2 271.7143 L 90 271.7143 L 90 252.8323 Z" fill="#2f4554" fill-opacity="undefined" stroke="none" clip-path="none" transform="matrix(1,0,0,1,0,0)"></path><text dominant-baseline="middle" alignment-baseline="middle" x="714.2" y="262.27329192546586" fill="#2f4554" fill-opacity="undefined" stroke="none" transform="matrix(1,0,0,1,0,0)" clip-path="none" style="font-style: normal; font-variant: normal; font-weight: normal; font-size: 12px; line-height: normal; font-family: 'Microsoft YaHei';"><tspan dominant-baseline="middle" alignment-baseline="middle" text-anchor="start" x="714.2" y="262.27329192546586">129129</tspan></text><path d="M 90 198.5466 L 786 198.5466 L 786 217.42860000000002 L 90 217.42860000000002 L 90 198.5466 Z" fill="#2f4554" fill-opacity="undefined" stroke="none" clip-path="none" transform="matrix(1,0,0,1,0,0)"></path><text dominant-baseline="middle" alignment-baseline="middle" x="791" y="207.98757763975158" fill="#2f4554" fill-opacity="undefined" stroke="none" transform="matrix(1,0,0,1,0,0)" clip-path="none" style="font-style: normal; font-variant: normal; font-weight: normal; font-size: 12px; line-height: normal; font-family: 'Microsoft YaHei';"><tspan dominant-baseline="middle" alignment-baseline="middle" text-anchor="start" x="791" y="207.98757763975158">145145</tspan></text><path d="M 90 144.2609 L 378 144.2609 L 378 163.1429 L 90 163.1429 L 90 144.2609 Z" fill="#2f4554" fill-opacity="undefined" stroke="none" clip-path="none" transform="matrix(1,0,0,1,0,0)"></path><text dominant-baseline="middle" alignment-baseline="middle" x="383" y="153.7018633540373" fill="#2f4554" fill-opacity="undefined" stroke="none" transform="matrix(1,0,0,1,0,0)" clip-path="none" style="font-style: normal; font-variant: normal; font-weight: normal; font-size: 12px; line-height: normal; font-family: 'Microsoft YaHei';"><tspan dominant-baseline="middle" alignment-baseline="middle" text-anchor="start" x="383" y="153.7018633540373">6060</tspan></text><path d="M 90 89.9752 L 325.2 89.9752 L 325.2 108.8572 L 90 108.8572 L 90 89.9752 Z" fill="#2f4554" fill-opacity="undefined" stroke="none" clip-path="none" transform="matrix(1,0,0,1,0,0)"></path><text dominant-baseline="middle" alignment-baseline="middle" x="330.2" y="99.41614906832301" fill="#2f4554" fill-opacity="undefined" stroke="none" transform="matrix(1,0,0,1,0,0)" clip-path="none" style="font-style: normal; font-variant: normal; font-weight: normal; font-size: 12px; line-height: normal; font-family: 'Microsoft YaHei';"><tspan dominant-baseline="middle" alignment-baseline="middle" text-anchor="start" x="330.2" y="99.41614906832301">4949</tspan></text><path d="M -5 -5 L 139 -5 L 139 19 L -5 19 L -5 -5 Z" fill="rgba(0,0,0,0)" fill-opacity="1" stroke="#ccc" stroke-width="0" paint-order="fill" stroke-opacity="1" stroke-dasharray="" stroke-linecap="butt" stroke-linejoin="miter" stroke-miterlimit="10" transform="matrix(1,0,0,1,383,5)" clip-path="none"></path><path d="M 3.5 0 L 21.5 0 A 3.5 3.5 0 0 1 25 3.5 L 25 10.5 A 3.5 3.5 0 0 1 21.5 14 L 3.5 14 A 3.5 3.5 0 0 1 0 10.5 L 0 3.5 A 3.5 3.5 0 0 1 3.5 0 Z" fill="#c23531" fill-opacity="1" stroke="none" transform="matrix(1,0,0,1,383,5)" clip-path="none"></path><text dominant-baseline="middle" alignment-baseline="middle" x="30" y="7" fill="#333" fill-opacity="1" stroke="none" transform="matrix(1,0,0,1,383,5)" clip-path="none" style="font-style: normal; font-variant: normal; font-weight: normal; font-size: 12px; line-height: normal; font-family: 'Microsoft YaHei';"><tspan dominant-baseline="middle" alignment-baseline="middle" text-anchor="start" x="30" y="7">商家A</tspan></text><path d="M 3.5 0 L 21.5 0 A 3.5 3.5 0 0 1 25 3.5 L 25 10.5 A 3.5 3.5 0 0 1 21.5 14 L 3.5 14 A 3.5 3.5 0 0 1 0 10.5 L 0 3.5 A 3.5 3.5 0 0 1 3.5 0 Z" fill="#2f4554" fill-opacity="1" stroke="none" transform="matrix(1,0,0,1,455,5)" clip-path="none"></path><text dominant-baseline="middle" alignment-baseline="middle" x="30" y="7" fill="#333" fill-opacity="1" stroke="none" transform="matrix(1,0,0,1,455,5)" clip-path="none" style="font-style: normal; font-variant: normal; font-weight: normal; font-size: 12px; line-height: normal; font-family: 'Microsoft YaHei';"><tspan dominant-baseline="middle" alignment-baseline="middle" text-anchor="start" x="30" y="7">商家B</tspan></text><path fill="rgba(0,0,0,0)" fill-opacity="1" stroke="#ccc" stroke-width="0" paint-order="fill" stroke-opacity="1" stroke-dasharray="" stroke-linecap="butt" stroke-linejoin="miter" stroke-miterlimit="10" transform="matrix(1,0,0,1,5,5)" clip-path="none"></path><text dominant-baseline="hanging" alignment-baseline="hanging" x="0" y="0" fill="#333" fill-opacity="1" stroke="none" transform="matrix(1,0,0,1,5,5)" clip-path="none" style="font-style: normal; font-weight: bolder; font-variant: normal; font-size: 18px; line-height: normal; font-family: 'Microsoft YaHei';"><tspan dominant-baseline="hanging" alignment-baseline="hanging" text-anchor="start" x="0" y="0">Bar-测试渲染图片</tspan></text></svg>
